<?xml version="1.0" encoding="UTF-8"?>
<svg id="Calque_2" data-name="Calque 2" xmlns="http://www.w3.org/2000/svg" viewBox="0 0 1024.5 171.21">
  <defs>
    <style>
      .cls-1 {
        fill: #fb7250;
        stroke: #fb7250;
      }

      .cls-1, .cls-2, .cls-3, .cls-4 {
        stroke-miterlimit: 10;
      }

      .cls-5 {
        letter-spacing: -.02em;
      }

      .cls-6 {
        font-family: Inter-ExtraBold, Inter;
        font-size: 115.12px;
        font-variation-settings: 'opsz' 14, 'wght' 800;
        font-weight: 700;
      }

      .cls-2 {
        fill: #4145ca;
        stroke: #4145ca;
      }

      .cls-3 {
        fill: none;
        stroke: #1d1d1b;
      }

      .cls-4 {
        fill: #1c1d6c;
        stroke: #1c1d6c;
      }

      .cls-7 {
        letter-spacing: -.04em;
      }

      .cls-8 {
        letter-spacing: -.02em;
      }
    </style>
  </defs>
  <g id="Calque_1-2" data-name="Calque 1">
    <g>
      <g>
        <path class="cls-3" d="M50.96,121.09c-1.38-.12-2.78-.28-4.13-.46v-1.02c1.35.51,2.73,1.01,4.13,1.48Z"/>
        <path class="cls-4" d="M141.84,24.2v1.21c-10.05.68-19.36,2.75-27.34,5.86-2.57-.4-5.18-.72-7.82-.97,1.85.62,3.66,1.28,5.42,1.97-15.11,6.52-24.9,16.98-24.9,28.76v109.66h-40.38v-50.07c1.35.18,2.76.33,4.13.46-1.4-.47-2.78-.97-4.13-1.48v-46.85c0-17.7,16.15-33.2,40.38-41.8,1.26-.46,2.54-.88,3.85-1.3,2.23-.69,4.51-1.34,6.84-1.92,10.21-2.55,21.45-3.96,33.26-3.96,3.61,0,7.2.14,10.69.4Z"/>
        <line class="cls-3" x1="87.21" y1="30.97" x2="87.21" y2="29.77"/>
        <path class="cls-3" d="M145.43,86.81c-.64,1.27-1.38,2.52-2.21,3.75.57-1.28,1.31-2.54,2.21-3.75Z"/>
        <path class="cls-1" d="M214.96,78.19c-3.47,18.32-24.35,33.6-52.81,40.14-6.44,1.46-13.23,2.5-20.31,3.01v-24.66c.02-2.08.5-4.11,1.35-6.06,0-.01.02-.03.02-.06.83-1.23,1.57-2.48,2.21-3.75,4.99-6.65,14.73-11.82,26.72-14.04h26.7c2.54.47,4.99,1.08,7.32,1.81,3.18.98,6.15,2.21,8.79,3.61Z"/>
        <path class="cls-2" d="M193.08,24.13c-16.68-6.12-36.46-9.67-57.65-9.67-32.21,0-61.12,8.18-80.89,21.16-.05.03-.12.07-.17.1-7.1,4.15-12.8,9.12-16.65,14.64-2.19,2.68-4.06,5.43-5.56,8.3-3.14,5.86-4.82,12.1-4.82,18.57s1.69,12.7,4.82,18.57v11.85C12.59,96.29.5,80.6.5,63.26S12.59,30.24,32.17,18.89C51.72,7.52,78.75.5,108.59.5c34.21,0,64.71,9.23,84.5,23.63Z"/>
      </g>
      <text class="cls-6" transform="translate(243.91 119.61) scale(1.72 1)"><tspan x="0" y="0">O</tspan><tspan class="cls-7" x="88.98" y="0">f</tspan><tspan x="131.2" y="0">fli</tspan><tspan class="cls-5" x="243.56" y="0">P</tspan><tspan class="cls-8" x="316.52" y="0">a</tspan><tspan x="382.12" y="0">y</tspan></text>
    </g>
  </g>
</svg>